{
    "asset" : {
        "generator" : "Khronos glTF Blender I/O v3.2.43",
        "version" : "2.0"
    },
    "extensionsUsed" : [
        "KHR_materials_unlit",
        "KHR_materials_transmission"
    ],
    "scene" : 0,
    "scenes" : [
        {
            "name" : "Scene",
            "nodes" : [
                0
            ]
        }
    ],
    "nodes" : [
        {
            "mesh" : 0,
            "name" : "Cube.002"
        }
    ],
    "materials" : [
        {
            "doubleSided" : true,
            "extensions" : {
                "KHR_materials_unlit" : {}
            },
            "name" : "Plate_forme_sol",
            "pbrMetallicRoughness" : {
                "metallicFactor" : 0,
                "roughnessFactor" : 0.9
            }
        },
        {
            "doubleSided" : true,
            "extensions" : {
                "KHR_materials_transmission" : {
                    "transmissionFactor" : 0.02850356325507164
                }
            },
            "name" : "Material.012",
            "pbrMetallicRoughness" : {
                "baseColorFactor" : [
                    0.4321407973766327,
                    0.1561635434627533,
                    0.3982307016849518,
                    1
                ],
                "metallicFactor" : 0.7196019887924194,
                "roughnessFactor" : 0.09649628400802612
            }
        }
    ],
    "meshes" : [
        {
            "name" : "Cube.003",
            "primitives" : [
                {
                    "attributes" : {
                        "POSITION" : 0,
                        "NORMAL" : 1,
                        "TEXCOORD_0" : 2
                    },
                    "indices" : 3,
                    "material" : 0
                },
                {
                    "attributes" : {
                        "POSITION" : 4,
                        "NORMAL" : 5,
                        "TEXCOORD_0" : 6
                    },
                    "indices" : 7,
                    "material" : 1
                }
            ]
        }
    ],
    "accessors" : [
        {
            "bufferView" : 0,
            "componentType" : 5126,
            "count" : 6406,
            "max" : [
                0.75,
                0.06151958182454109,
                0.75
            ],
            "min" : [
                -0.75,
                -0.024000000208616257,
                -0.75
            ],
            "type" : "VEC3"
        },
        {
            "bufferView" : 1,
            "componentType" : 5126,
            "count" : 6406,
            "type" : "VEC3"
        },
        {
            "bufferView" : 2,
            "componentType" : 5126,
            "count" : 6406,
            "type" : "VEC2"
        },
        {
            "bufferView" : 3,
            "componentType" : 5123,
            "count" : 9594,
            "type" : "SCALAR"
        },
        {
            "bufferView" : 4,
            "componentType" : 5126,
            "count" : 508,
            "max" : [
                0.7009884715080261,
                0.04378017038106918,
                0.6987847685813904
            ],
            "min" : [
                -0.6987847685813904,
                0.04347268119454384,
                -0.6987847685813904
            ],
            "type" : "VEC3"
        },
        {
            "bufferView" : 5,
            "componentType" : 5126,
            "count" : 508,
            "type" : "VEC3"
        },
        {
            "bufferView" : 6,
            "componentType" : 5126,
            "count" : 508,
            "type" : "VEC2"
        },
        {
            "bufferView" : 7,
            "componentType" : 5123,
            "count" : 762,
            "type" : "SCALAR"
        }
    ],
    "bufferViews" : [
        {
            "buffer" : 0,
            "byteLength" : 76872,
            "byteOffset" : 0
        },
        {
            "buffer" : 0,
            "byteLength" : 76872,
            "byteOffset" : 76872
        },
        {
            "buffer" : 0,
            "byteLength" : 51248,
            "byteOffset" : 153744
        },
        {
            "buffer" : 0,
            "byteLength" : 19188,
            "byteOffset" : 204992
        },
        {
            "buffer" : 0,
            "byteLength" : 6096,
            "byteOffset" : 224180
        },
        {
            "buffer" : 0,
            "byteLength" : 6096,
            "byteOffset" : 230276
        },
        {
            "buffer" : 0,
            "byteLength" : 4064,
            "byteOffset" : 236372
        },
        {
            "buffer" : 0,
            "byteLength" : 1524,
            "byteOffset" : 240436
        }
    ],
    "buffers" : [
        {
            "byteLength" : 241960,
            "uri" : "data:application/octet-stream;base64,"
        }
    ]
}
