{
	"asset": {
		"generator": "Khronos glTF Blender I/O v3.2.43",
		"version": "2.0"
	},
	"scene": 0,
	"scenes": [
		{
			"name": "Scene",
			"nodes": [0]
		}
	],
	"nodes": [
		{
			"mesh": 0,
			"name": "tuyaux_loop.002"
		}
	],
	"materials": [
		{
			"doubleSided": true,
			"name": "TUYAUROSE",
			"pbrMetallicRoughness": {}
		}
	],
	"meshes": [
		{
			"name": "Circle.001",
			"primitives": [
				{
					"attributes": {
						"POSITION": 0,
						"NORMAL": 1,
						"TEXCOORD_0": 2
					},
					"indices": 3,
					"material": 0
				}
			]
		}
	],
	"accessors": [
		{
			"bufferView": 0,
			"componentType": 5126,
			"count": 2048,
			"max": [3.6192240715026855, 0.9243484735488892, 1.7400567531585693],
			"min": [
				-3.617854595184326, -0.9588455557823181, -1.7425040006637573
			],
			"type": "VEC3"
		},
		{
			"bufferView": 1,
			"componentType": 5126,
			"count": 2048,
			"type": "VEC3"
		},
		{
			"bufferView": 2,
			"componentType": 5126,
			"count": 2048,
			"type": "VEC2"
		},
		{
			"bufferView": 3,
			"componentType": 5123,
			"count": 12288,
			"type": "SCALAR"
		}
	],
	"bufferViews": [
		{
			"buffer": 0,
			"byteLength": 24576,
			"byteOffset": 0
		},
		{
			"buffer": 0,
			"byteLength": 24576,
			"byteOffset": 24576
		},
		{
			"buffer": 0,
			"byteLength": 16384,
			"byteOffset": 49152
		},
		{
			"buffer": 0,
			"byteLength": 24576,
			"byteOffset": 65536
		}
	],
	"buffers": [
		{
			"byteLength": 90112,
			"uri": "data:application/octet-stream;base64,"
		}
	]
}
