{
    "asset" : {
        "generator" : "Khronos glTF Blender I/O v3.2.43",
        "version" : "2.0"
    },
    "scene" : 0,
    "scenes" : [
        {
            "name" : "Scene",
            "nodes" : [
                0
            ]
        }
    ],
    "nodes" : [
        {
            "mesh" : 0,
            "name" : "tuyaux.002"
        }
    ],
    "materials" : [
        {
            "doubleSided" : true,
            "name" : "TUYAUBLEU",
            "pbrMetallicRoughness" : {}
        }
    ],
    "meshes" : [
        {
            "name" : "Circle.002",
            "primitives" : [
                {
                    "attributes" : {
                        "POSITION" : 0,
                        "NORMAL" : 1,
                        "TEXCOORD_0" : 2
                    },
                    "indices" : 3,
                    "material" : 0
                }
            ]
        }
    ],
    "accessors" : [
        {
            "bufferView" : 0,
            "componentType" : 5126,
            "count" : 4634,
            "max" : [
                3.60278582572937,
                0.8475507497787476,
                0.8475508093833923
            ],
            "min" : [
                -3.612609624862671,
                -0.8475507497787476,
                -0.8475508689880371
            ],
            "type" : "VEC3"
        },
        {
            "bufferView" : 1,
            "componentType" : 5126,
            "count" : 4634,
            "type" : "VEC3"
        },
        {
            "bufferView" : 2,
            "componentType" : 5126,
            "count" : 4634,
            "type" : "VEC2"
        },
        {
            "bufferView" : 3,
            "componentType" : 5123,
            "count" : 24576,
            "type" : "SCALAR"
        }
    ],
    "bufferViews" : [
        {
            "buffer" : 0,
            "byteLength" : 55608,
            "byteOffset" : 0
        },
        {
            "buffer" : 0,
            "byteLength" : 55608,
            "byteOffset" : 55608
        },
        {
            "buffer" : 0,
            "byteLength" : 37072,
            "byteOffset" : 111216
        },
        {
            "buffer" : 0,
            "byteLength" : 49152,
            "byteOffset" : 148288
        }
    ],
    "buffers" : [
        {
            "byteLength" : 197440,
            "uri" : "data:application/octet-stream;base64,"
        }
    ]
}
